<svg width="92" height="92" xmlns="http://www.w3.org/2000/svg">

 <g>
  <title>background</title>
  <rect fill="none" id="canvas_background" height="402" width="582" y="-1" x="-1"/>
 </g>
 <g>
  <title>Layer 1</title>
  <ellipse stroke="#000" ry="44.52257" rx="44.522567" id="svg_19" cy="45.991682" cx="46" stroke-opacity="null" stroke-width="1.5" fill="#e9c46a"/>
  <path fill="#e76f51" id="svg_2" d="m45.998,0c-25.404,0 -45.998,20.596 -45.998,46c0,25.406 20.594,46 45.998,46c25.406,0 46.002,-20.594 46.002,-46c0,-25.404 -20.596,-46 -46.002,-46zm0,82c-19.881,0 -35.998,-16.117 -35.998,-36s16.117,-36 35.998,-36c19.885,0 36.002,16.117 36.002,36s-16.117,36 -36.002,36zm9.002,-55.25l-18,0l0,20.451l-11.25,0l20.25,19.049l20.25,-19.049l-11.25,0l0,-20.451z"/>
 </g>
</svg>