<svg width="32" height="32" xmlns="http://www.w3.org/2000/svg">

 <g>
  <title>background</title>
  <rect fill="none" id="canvas_background" height="402" width="582" y="-1" x="-1"/>
 </g>
 <g>
  <title>Layer 1</title>
  <path id="svg_3" fill="#ffffff" d="m16,31.625c-8.615,0 -15.625,-7.01 -15.625,-15.625c0,-8.616 7.01,-15.625 15.625,-15.625s15.625,7.009 15.625,15.625c0,8.615 -7.01,15.625 -15.625,15.625z"/>
  <path id="svg_4" fill="#ffffff" d="m16,0.75c8.409,0 15.25,6.841 15.25,15.25s-6.841,15.25 -15.25,15.25s-15.25,-6.841 -15.25,-15.25s6.841,-15.25 15.25,-15.25m0,-0.75c-8.837,0 -16,7.163 -16,16c0,8.836 7.163,16 16,16s16,-7.164 16,-16c0,-8.837 -7.163,-16 -16,-16l0,0z"/>
  <path id="svg_5" fill="#264653" d="m6.532,21.561c2.452,2.129 5.138,4.108 8.75,4.109c0.07,0 0.141,-0.001 0.214,-0.003c2.298,-0.053 4.897,-0.829 6.915,-2.096l0.012,-0.008c0.264,-0.159 0.529,-0.338 0.777,-0.538c0.156,-0.115 0.262,-0.293 0.262,-0.48c-0.006,-0.333 -0.288,-0.557 -0.592,-0.557c-0.095,-0.001 -0.194,0.021 -0.287,0.066c-0.103,0.041 -0.21,0.088 -0.309,0.131l-0.148,0.062l-0.19,0.077l0,0.001c-2.075,0.841 -4.255,1.335 -6.272,1.38c-0.074,0.002 -0.148,0.002 -0.222,0.002c-3.172,0.001 -5.761,-1.471 -8.371,-2.921c-0.092,-0.048 -0.185,-0.073 -0.276,-0.073c-0.119,0 -0.238,0.044 -0.326,0.126c-0.088,0.082 -0.14,0.202 -0.139,0.324c0,0.16 0.084,0.305 0.202,0.398z"/>
  <path id="svg_6" fill="#264653" d="m25.667,20.813c-0.008,-0.202 -0.05,-0.355 -0.135,-0.482l-0.008,-0.013l-0.01,-0.013c-0.086,-0.094 -0.168,-0.128 -0.257,-0.168c-0.264,-0.102 -0.65,-0.156 -1.113,-0.157c-0.334,0 -0.703,0.032 -1.072,0.112l-0.001,-0.024l-0.371,0.123l-0.006,0.004l-0.21,0.068l0,0.009c-0.247,0.102 -0.471,0.231 -0.679,0.38c-0.13,0.098 -0.238,0.226 -0.244,0.422c-0.003,0.107 0.052,0.231 0.142,0.304c0.09,0.073 0.194,0.097 0.286,0.097c0.023,0 0.043,-0.001 0.062,-0.004l0.016,-0.001l0.015,-0.003c0.181,-0.039 0.447,-0.064 0.757,-0.108c0.266,-0.029 0.548,-0.052 0.792,-0.052c0.173,0 0.329,0.012 0.436,0.035c0.054,0.012 0.093,0.025 0.116,0.037c0.008,0.003 0.014,0.005 0.016,0.008c0.005,0.015 0.011,0.053 0.01,0.107c0.004,0.204 -0.084,0.585 -0.202,0.955c-0.116,0.371 -0.258,0.743 -0.351,0.99c-0.023,0.057 -0.035,0.12 -0.035,0.188c-0.003,0.099 0.038,0.219 0.124,0.3c0.083,0.079 0.192,0.112 0.283,0.112l0.004,0c0.137,-0.002 0.253,-0.057 0.354,-0.135c0.944,-0.85 1.272,-2.206 1.286,-2.968l-0.004,-0.123l-0.001,0l0,0z"/>
  <path id="svg_7" fill="#264653" d="m17.035,11.71c-0.555,0.042 -1.196,0.084 -1.836,0.169c-0.982,0.13 -1.963,0.3 -2.774,0.685c-1.579,0.64 -2.647,2.006 -2.647,4.013c0,2.52 1.622,3.801 3.672,3.801c0.683,0 1.238,-0.087 1.749,-0.213c0.812,-0.257 1.493,-0.726 2.306,-1.581c0.469,0.64 0.597,0.94 1.408,1.623c0.213,0.084 0.427,0.084 0.597,-0.041c0.514,-0.428 1.409,-1.197 1.877,-1.624c0.215,-0.17 0.171,-0.427 0.042,-0.639c-0.468,-0.598 -0.938,-1.111 -0.938,-2.265l0,-3.843c0,-1.623 0.128,-3.118 -1.066,-4.227c-0.981,-0.896 -2.518,-1.239 -3.713,-1.239l-0.512,0c-2.176,0.127 -4.481,1.067 -4.994,3.758c-0.086,0.342 0.172,0.469 0.342,0.511l2.389,0.299c0.257,-0.043 0.386,-0.257 0.427,-0.469c0.214,-0.94 0.982,-1.41 1.836,-1.495l0.172,0c0.512,0 1.066,0.214 1.365,0.641c0.341,0.513 0.3,1.195 0.3,1.794l-0.002,0.342l0,0zm-0.469,5.08l0,0c-0.299,0.596 -0.811,0.98 -1.366,1.111c-0.086,0 -0.213,0.041 -0.342,0.041c-0.938,0 -1.493,-0.727 -1.493,-1.793c0,-1.368 0.812,-2.008 1.836,-2.307c0.555,-0.127 1.195,-0.172 1.836,-0.172l0,0.513c-0.002,0.985 0.04,1.753 -0.471,2.607z"/>
 </g>
</svg>