<svg width="999.9999999999999" height="999.9999999999999" xmlns="http://www.w3.org/2000/svg">

 <g>
  <title>background</title>
  <rect fill="none" id="canvas_background" height="402" width="582" y="-1" x="-1"/>
 </g>
 <g>
  <title>Layer 1</title>
  <path fill="#ffffff" id="svg_1" d="m500,1000l0,0c-276.1,0 -500,-223.9 -500,-500l0,0c0,-276.1 223.9,-500 500,-500l0,0c276.1,0 500,223.9 500,500l0,0c0,276.1 -223.9,500 -500,500z"/>
  <path fill="#264653" id="svg_3" d="m500,220.2c91.1,0 101.9,0.3 137.9,2c33.3,1.5 51.4,7.1 63.4,11.8c15.9,6.2 27.3,13.6 39.2,25.5s19.3,23.3 25.5,39.2c4.7,12 10.2,30.1 11.8,63.4c1.6,36 2,46.8 2,137.9s-0.3,101.9 -2,137.9c-1.5,33.3 -7.1,51.4 -11.8,63.4c-6.2,15.9 -13.6,27.3 -25.5,39.2s-23.3,19.3 -39.2,25.5c-12,4.7 -30.1,10.2 -63.4,11.8c-36,1.6 -46.8,2 -137.9,2s-101.9,-0.3 -137.9,-2c-33.3,-1.5 -51.4,-7.1 -63.4,-11.8c-15.9,-6.2 -27.3,-13.6 -39.2,-25.5c-11.9,-11.9 -19.3,-23.3 -25.5,-39.2c-4.7,-12 -10.2,-30.1 -11.8,-63.4c-1.6,-36 -2,-46.8 -2,-137.9s0.3,-101.9 2,-137.9c1.5,-33.3 7.1,-51.4 11.8,-63.4c6.2,-15.9 13.6,-27.3 25.5,-39.2c11.9,-11.9 23.3,-19.3 39.2,-25.5c12,-4.7 30.1,-10.2 63.4,-11.8c36,-1.7 46.8,-2 137.9,-2m0,-61.5c-92.7,0 -104.3,0.4 -140.7,2.1c-36.3,1.7 -61.1,7.4 -82.9,15.9c-22.4,8.6 -41.5,20.3 -60.4,39.3c-19,19 -30.6,38 -39.4,60.5c-8.4,21.7 -14.2,46.5 -15.9,82.9s-2.1,48 -2.1,140.7s0.4,104.3 2.1,140.7c1.7,36.3 7.4,61.1 15.9,82.9c8.7,22.3 20.4,41.4 39.4,60.3c19,19 38,30.6 60.5,39.4c21.7,8.4 46.5,14.2 82.9,15.9s48,2.1 140.7,2.1s104.3,-0.4 140.7,-2.1c36.3,-1.7 61.1,-7.4 82.9,-15.9c22.3,-8.7 41.4,-20.4 60.3,-39.4c19,-19 30.6,-38 39.4,-60.5c8.4,-21.7 14.2,-46.5 15.9,-82.9s2.1,-48 2.1,-140.7s-0.4,-104.3 -2.1,-140.7c-1.7,-36.3 -7.4,-61.1 -15.9,-82.9c-8.7,-22.3 -20.4,-41.4 -39.4,-60.3c-19,-19 -38,-30.6 -60.5,-39.4c-21.7,-8.4 -46.5,-14.2 -82.9,-15.9c-36.3,-1.6 -47.9,-2 -140.6,-2l0,0z" class="st0"/>
  <path fill="#264653" id="svg_4" d="m500,324.7c-96.8,0 -175.3,78.5 -175.3,175.3s78.5,175.3 175.3,175.3s175.3,-78.5 175.3,-175.3s-78.5,-175.3 -175.3,-175.3zm0,289.1c-62.8,0 -113.8,-50.9 -113.8,-113.8s51,-113.8 113.8,-113.8s113.8,50.9 113.8,113.8s-51,113.8 -113.8,113.8z" class="st0"/>
  <circle fill="#264653" id="svg_5" r="41" cy="317.8" cx="682.2" class="st0"/>
 </g>
</svg>