<svg width="1080" height="1080" xmlns="http://www.w3.org/2000/svg">

 <g>
  <title>background</title>
  <rect fill="none" id="canvas_background" height="402" width="582" y="-1" x="-1"/>
 </g>
 <g>
  <title>Layer 1</title>
  <rect fill="#ffffff" id="svg_2" y="159.5" x="157.5" width="760" stroke-width="27" stroke="#ffffff" rx="380" height="760"/>
  <path id="svg_1" stroke-width="10" stroke="#264653" fill="#264653" d="m694.195,431.446c-19.246,0 -37.707,-7.663 -51.32,-21.307c-13.613,-13.644 -21.263,-32.152 -21.263,-51.452c0,-1.332 0.085,-2.844 0.185,-4.619c0.016,-0.278 0.032,-0.564 0.048,-0.856c0.115,-2.067 0.228,-4.399 0.174,-6.709c-0.102,-4.305 -0.778,-10.049 -4.689,-13.969c-3.786,-3.794 -9.588,-4.872 -14.096,-5.275c-3.621,-0.324 -7.494,-0.269 -10.503,-0.226c-0.905,0.013 -1.732,0.024 -2.451,0.024c-0.719,0 -1.538,-0.011 -2.428,-0.024c-2.932,-0.043 -6.634,-0.097 -10.08,0.228c-4.372,0.413 -9.86,1.524 -13.601,5.273c-3.911,3.92 -4.586,9.664 -4.688,13.969c-0.055,2.31 0.058,4.642 0.173,6.709c0.016,0.292 0.032,0.577 0.048,0.856c0.1,1.775 0.185,3.287 0.185,4.619l0,259.197c0,14.392 -4.258,28.461 -12.235,40.427c-7.977,11.965 -19.314,21.289 -32.575,26.795c-13.262,5.505 -27.854,6.945 -41.931,4.139c-14.078,-2.807 -27.011,-9.734 -37.162,-19.909c-10.152,-10.175 -17.067,-23.14 -19.868,-37.256c-2.802,-14.116 -1.364,-28.747 4.131,-42.044c5.495,-13.296 14.8,-24.659 26.736,-32.652c11.936,-7.994 25.968,-12.26 40.321,-12.26c1.164,0 2.447,0.049 3.918,0.104c0.554,0.021 1.135,0.043 1.746,0.063c2.145,0.073 4.542,0.124 6.923,0.006c4.414,-0.219 10.253,-1.049 14.126,-4.93c3.869,-3.878 4.665,-9.611 4.853,-13.965c0.101,-2.337 0.034,-4.691 -0.05,-6.794c-0.02,-0.509 -0.041,-0.997 -0.061,-1.466c-0.066,-1.551 -0.124,-2.898 -0.124,-4.116c0,-0.341 0.001,-0.697 0.002,-1.066c0.008,-3.187 0.018,-7.332 -0.512,-11.283c-0.576,-4.298 -1.904,-9.419 -5.519,-13.043c-3.717,-3.725 -8.958,-4.823 -13.213,-5.211c-3.177,-0.289 -6.644,-0.225 -9.452,-0.173c-0.971,0.018 -1.863,0.035 -2.637,0.035c-26.566,0 -52.534,7.896 -74.621,22.687c-22.086,14.791 -39.299,35.813 -49.463,60.407c-10.164,24.593 -12.823,51.654 -7.642,77.761c5.182,26.108 17.971,50.09 36.753,68.915c18.783,18.825 42.714,31.646 68.769,36.84c26.055,5.195 53.062,2.529 77.604,-7.66c24.543,-10.189 45.518,-27.443 60.274,-49.577c14.756,-22.134 22.632,-48.156 22.632,-74.774l0,-145.894c21.553,13.992 46.774,21.433 72.596,21.295c1.366,0.001 2.918,0.098 4.75,0.212c0.201,0.013 0.405,0.026 0.613,0.039c2.024,0.125 4.312,0.255 6.579,0.216c4.246,-0.072 9.9,-0.718 13.818,-4.645c3.688,-3.697 4.97,-9.274 5.525,-13.768c0.524,-4.231 0.513,-8.654 0.506,-11.908c-0.001,-0.371 -0.002,-0.727 -0.002,-1.065c0,-0.341 0.001,-0.697 0.002,-1.066c0.007,-3.191 0.018,-7.348 -0.512,-11.312c-0.575,-4.307 -1.9,-9.449 -5.519,-13.076l-3.54,3.532l3.54,-3.532c-3.725,-3.733 -9.101,-4.854 -13.427,-5.267c-3.373,-0.323 -7.006,-0.269 -9.906,-0.225c-0.892,0.013 -1.715,0.026 -2.44,0.026z"/>
 </g>
</svg>