<svg width="1000" height="1000" xmlns="http://www.w3.org/2000/svg">

 <title/>
 <g>
  <title>background</title>
  <rect fill="none" id="canvas_background" height="402" width="582" y="-1" x="-1"/>
 </g>
 <g>
  <title>Layer 1</title>
  <path fill="#ffffff" id="svg_2" d="m500,1000l0,0c-276.1,0 -500,-223.9 -500,-500l0,0c0,-276.1 223.9,-500 500,-500l0,0c276.1,0 500,223.9 500,500l0,0c0,276.1 -223.9,500 -500,500z"/>
  <path fill="#264653" id="svg_3" d="m818.2,339.1c-7.6,-28.8 -30.1,-51.4 -58.7,-59.1c-51.8,-14 -259.4,-14 -259.4,-14s-207.7,0 -259.4,14c-28.6,7.7 -51.1,30.3 -58.7,59.1c-14,52.1 -14,160.9 -14,160.9s0,108.8 13.9,160.9c7.6,28.8 30.1,51.4 58.7,59.1c51.8,14 259.4,14 259.4,14s207.7,0 259.4,-14c28.6,-7.7 51.1,-30.3 58.7,-59.1c13.9,-52.1 13.9,-160.9 13.9,-160.9s0,-108.8 -13.8,-160.9zm-386.1,259.6l0,-197.4l173.5,98.7l-173.5,98.7z" class="st0"/>
 </g>
</svg>